<svg width="1632" height="1287" viewBox="0 0 1632 1287" fill="none" xmlns="http://www.w3.org/2000/svg">
<path fill-rule="evenodd" clip-rule="evenodd" d="M175.059 157.607C176.655 159.135 176.709 161.667 175.181 163.262C172.753 165.797 170.158 168.308 167.423 170.799C165.79 172.286 163.26 172.168 161.773 170.535C160.285 168.901 160.403 166.371 162.037 164.884C164.657 162.498 167.119 160.115 169.404 157.729C170.932 156.133 173.464 156.079 175.059 157.607ZM151.598 178.918C152.943 180.671 152.613 183.182 150.861 184.527C145.385 188.731 139.601 192.925 133.633 197.127C131.826 198.398 129.331 197.965 128.059 196.159C126.788 194.352 127.221 191.857 129.027 190.585C134.94 186.422 140.629 182.297 145.989 178.181C147.742 176.836 150.253 177.166 151.598 178.918ZM117.219 203.625C118.464 205.45 117.994 207.938 116.169 209.183C114.936 210.025 113.701 210.867 112.463 211.711C107.896 214.823 103.302 217.955 98.7103 221.124C96.8921 222.379 94.401 221.922 93.1461 220.104C91.8913 218.286 92.348 215.795 94.1661 214.54C98.7785 211.357 103.398 208.208 107.967 205.094C109.202 204.252 110.434 203.412 111.66 202.575C113.485 201.33 115.974 201.8 117.219 203.625ZM82.3736 227.69C83.6715 229.477 83.2745 231.979 81.4868 233.277C75.7678 237.429 70.1604 241.647 64.7503 245.953C63.0217 247.328 60.5053 247.042 59.1297 245.313C57.7541 243.585 58.0402 241.068 59.7688 239.693C65.2921 235.297 70.9969 231.006 76.7867 226.803C78.5744 225.505 81.0757 225.902 82.3736 227.69ZM49.0856 253.827C50.5783 255.455 50.4681 257.985 48.8396 259.478C43.606 264.275 38.7118 269.181 34.2576 274.218C32.7942 275.872 30.2662 276.028 28.6114 274.564C26.9565 273.101 26.8013 270.573 28.2648 268.918C32.9352 263.637 38.0321 258.532 43.4341 253.581C45.0627 252.088 47.593 252.198 49.0856 253.827ZM20.5837 285.024C22.444 286.216 22.9862 288.69 21.7948 290.55C18.0493 296.398 14.9715 302.414 12.6814 308.629C11.9176 310.702 9.61795 311.763 7.54508 310.999C5.4722 310.235 4.41103 307.936 5.17489 305.863C7.69019 299.037 11.0429 292.505 15.058 286.236C16.2494 284.375 18.7234 283.833 20.5837 285.024ZM4.62784 323.831C6.82881 324.021 8.45909 325.959 8.26918 328.16C7.71637 334.567 8.00033 341.234 9.25757 348.196C9.65013 350.37 8.206 352.451 6.03202 352.843C3.85804 353.236 1.77745 351.792 1.38489 349.618C0.00457382 341.974 -0.316009 334.598 0.298796 327.472C0.488703 325.271 2.42688 323.641 4.62784 323.831ZM117.727 344.789C118.116 346.964 116.668 349.042 114.493 349.431C109.946 350.243 106.033 353.385 103.811 361.004C103.193 363.124 100.972 364.342 98.8511 363.723C96.7304 363.105 95.5126 360.884 96.1312 358.763C98.9849 348.98 104.846 343.028 113.086 341.555C115.26 341.167 117.338 342.614 117.727 344.789ZM130.545 348.286C131.563 346.325 133.978 345.562 135.939 346.58C139.047 348.195 142.219 350.143 145.417 352.38C148.983 354.874 151.515 358.047 153.003 361.717C153.833 363.764 152.846 366.097 150.799 366.927C148.751 367.757 146.419 366.77 145.589 364.723C144.711 362.558 143.199 360.591 140.832 358.936C137.877 356.869 135.005 355.11 132.251 353.679C130.29 352.661 129.527 350.246 130.545 348.286ZM9.84855 365.466C11.89 364.622 14.2293 365.593 15.0737 367.634C16.3323 370.677 17.7718 373.777 19.4022 376.935C20.9342 379.902 22.5073 382.693 24.1159 385.315C25.2712 387.198 24.6812 389.661 22.7983 390.816C20.9153 391.971 18.4523 391.381 17.297 389.498C15.5809 386.701 13.9117 383.739 12.2937 380.605C10.565 377.256 9.02976 373.953 7.68102 370.692C6.83669 368.65 7.80713 366.311 9.84855 365.466ZM97.9615 376.951C100.168 376.843 102.044 378.545 102.151 380.752C102.437 386.628 103.24 393.395 104.645 401.121C105.04 403.294 103.598 405.377 101.425 405.772C99.251 406.167 97.1687 404.725 96.7736 402.552C95.32 394.555 94.4663 387.435 94.1604 381.14C94.0532 378.933 95.755 377.058 97.9615 376.951ZM149.344 378.722C151.37 379.601 152.301 381.956 151.422 383.983C148.846 389.921 144.812 395.898 139.747 401.452C138.259 403.084 135.729 403.201 134.096 401.713C132.464 400.224 132.347 397.694 133.836 396.062C138.428 391.025 141.923 385.777 144.082 380.8C144.961 378.773 147.317 377.843 149.344 378.722ZM29.7755 400.258C31.4058 398.768 33.9359 398.881 35.4267 400.511C40.0408 405.557 44.8218 409.545 49.6753 412.627C51.5403 413.81 52.0925 416.282 50.9085 418.147C49.7245 420.012 47.2528 420.565 45.3877 419.381C39.8981 415.896 34.5806 411.441 29.5228 405.91C28.032 404.279 28.1452 401.749 29.7755 400.258ZM125.169 409.389C126.411 411.216 125.937 413.703 124.111 414.946C119.606 418.009 114.731 420.737 109.587 422.978C111.129 428.812 112.925 435.027 114.994 441.639C115.654 443.747 114.479 445.991 112.371 446.651C110.262 447.311 108.018 446.136 107.359 444.028C105.079 436.742 103.118 429.908 101.456 423.509C101.112 423.139 100.832 422.698 100.641 422.197C99.8587 420.131 100.899 417.822 102.965 417.039C108.884 414.796 114.497 411.809 119.612 408.33C121.439 407.088 123.927 407.562 125.169 409.389ZM61.6947 422.814C62.221 420.668 64.387 419.356 66.5325 419.882C72.6444 421.381 78.7997 421.768 84.8517 421.251C87.0529 421.063 88.9896 422.695 89.1777 424.896C89.3657 427.097 87.7337 429.034 85.5326 429.222C78.6798 429.807 71.6468 429.374 64.6265 427.652C62.481 427.125 61.1684 424.96 61.6947 422.814ZM116.555 459.174C118.639 458.44 120.923 459.533 121.658 461.617C123.874 467.901 126.299 474.482 128.942 481.367C129.734 483.429 128.704 485.743 126.642 486.535C124.579 487.327 122.265 486.297 121.474 484.234C118.806 477.285 116.355 470.636 114.113 464.277C113.379 462.194 114.472 459.909 116.555 459.174ZM131.482 498.717C133.527 497.88 135.863 498.858 136.7 500.902C139.262 507.16 141.986 513.637 144.876 520.34C145.751 522.369 144.815 524.723 142.786 525.597C140.758 526.472 138.404 525.536 137.53 523.508C134.621 516.762 131.879 510.239 129.297 503.934C128.459 501.89 129.438 499.554 131.482 498.717ZM148.099 537.649C150.114 536.743 152.482 537.641 153.388 539.656C156.186 545.877 159.115 552.273 162.18 558.848C163.113 560.85 162.247 563.23 160.244 564.163C158.242 565.096 155.862 564.23 154.929 562.227C151.85 555.621 148.906 549.192 146.092 542.938C145.186 540.923 146.085 538.555 148.099 537.649ZM165.876 576.055C167.867 575.099 170.257 575.937 171.214 577.928C172.742 581.109 174.3 584.329 175.888 587.588C176.856 589.574 176.031 591.968 174.045 592.936C172.059 593.903 169.664 593.078 168.697 591.092C167.103 587.821 165.538 584.588 164.003 581.393C163.046 579.402 163.885 577.012 165.876 576.055Z" fill="#FFBA55"/>
<rect x="177.596" width="1280.72" height="1009.2" rx="60" fill="#FFEACB"/>
<path d="M177.596 60C177.596 26.8629 204.459 0 237.596 0H1398.32C1431.46 0 1458.32 26.8629 1458.32 60V120.693H177.596V60Z" fill="#FED085"/>
<ellipse cx="281.008" cy="62.9142" rx="18.5612" ry="17.9755" fill="white"/>
<ellipse cx="281.008" cy="62.9142" rx="18.5612" ry="17.9755" fill="white"/>
<ellipse cx="343.321" cy="62.9142" rx="18.5612" ry="17.9755" fill="white"/>
<ellipse cx="343.321" cy="62.9142" rx="18.5612" ry="17.9755" fill="white"/>
<ellipse cx="405.634" cy="62.9142" rx="18.5612" ry="17.9755" fill="white"/>
<ellipse cx="405.634" cy="62.9142" rx="18.5612" ry="17.9755" fill="white"/>
<rect x="743.713" y="175.903" width="653.62" height="385.19" rx="40" fill="#FFE2B7"/>
<ellipse cx="1228.29" cy="364.004" rx="121.311" ry="117.483" fill="#EECCA9"/>
<ellipse cx="1228.29" cy="364.004" rx="121.311" ry="117.483" fill="#FDD79F"/>
<path d="M1154.94 457.578C1168.63 467.638 1184.36 474.769 1201.1 478.498C1217.85 482.227 1235.21 482.47 1252.06 479.21C1268.91 475.95 1284.85 469.262 1298.83 459.589C1312.8 449.915 1324.5 437.477 1333.14 423.097C1341.78 408.718 1347.17 392.724 1348.95 376.176C1350.73 359.628 1348.86 342.903 1343.47 327.107C1338.07 311.311 1329.27 296.805 1317.65 284.55C1306.03 272.294 1291.86 262.568 1276.07 256.016L1228.29 364.004L1154.94 457.578Z" fill="#FF546C"/>
<path d="M1349.6 364.004C1349.6 345.158 1344.92 326.588 1335.95 309.862C1326.99 293.137 1313.99 278.746 1298.08 267.905C1282.16 257.064 1263.78 250.09 1244.49 247.574C1225.21 245.057 1205.58 247.07 1187.27 253.444L1228.29 364.004H1349.6Z" fill="#FFFFFD"/>
<rect x="807.351" y="258.077" width="39.7741" height="38.519" rx="7" fill="#FDD79F"/>
<rect x="866.321" y="268.096" width="139.665" height="10.0191" rx="5.00956" fill="#FDD79F"/>
<rect x="807.351" y="349.238" width="39.7741" height="38.519" rx="7" fill="#FF546C"/>
<rect x="882.922" y="362.078" width="178.983" height="12.8397" rx="6.41983" fill="#FDD79F"/>
<rect x="807.351" y="440.4" width="39.7741" height="38.519" rx="7" fill="#FFFFFD"/>
<rect x="882.922" y="453.24" width="178.983" height="12.8397" rx="6.41983" fill="#FDD79F"/>
<rect x="238.583" y="175.903" width="448.121" height="385.19" rx="40" fill="#FFE2B7"/>
<rect x="283.66" y="218.274" width="31.8192" height="222.126" rx="15.9096" fill="#EECCA9"/>
<rect x="283.66" y="218.274" width="31.8192" height="222.126" rx="15.9096" fill="#FDD79F"/>
<rect x="283.66" y="285.04" width="31.8192" height="155.36" rx="15.9096" fill="#7DB5C4"/>
<rect x="283.66" y="285.04" width="31.8192" height="155.36" rx="15.9096" fill="#7DB5C4"/>
<rect x="348.624" y="218.274" width="31.8192" height="222.126" rx="15.9096" fill="#EECCA9"/>
<rect x="348.624" y="218.274" width="31.8192" height="222.126" rx="15.9096" fill="#FDD79F"/>
<rect x="348.624" y="349.238" width="31.8192" height="91.1615" rx="15.9096" fill="#7DB5C4"/>
<rect x="348.624" y="349.238" width="31.8192" height="91.1615" rx="15.9096" fill="#7DB5C4"/>
<rect x="413.588" y="218.274" width="31.8192" height="222.126" rx="15.9096" fill="#EECCA9"/>
<rect x="413.588" y="218.274" width="31.8192" height="222.126" rx="15.9096" fill="#FDD79F"/>
<rect x="413.588" y="260.645" width="31.8192" height="179.755" rx="15.9096" fill="#7DB5C4"/>
<rect x="413.588" y="260.645" width="31.8192" height="179.755" rx="15.9096" fill="#7DB5C4"/>
<rect x="478.553" y="218.274" width="31.8193" height="222.126" rx="15.9097" fill="#EECCA9"/>
<rect x="478.553" y="218.274" width="31.8193" height="222.126" rx="15.9097" fill="#FDD79F"/>
<rect x="478.553" y="310.72" width="31.8193" height="129.68" rx="15.9097" fill="#7DB5C4"/>
<rect x="478.553" y="310.72" width="31.8193" height="129.68" rx="15.9097" fill="#7DB5C4"/>
<rect x="543.517" y="218.274" width="31.8193" height="222.126" rx="15.9096" fill="#EECCA9"/>
<rect x="543.517" y="218.274" width="31.8193" height="222.126" rx="15.9096" fill="#FDD79F"/>
<rect x="543.517" y="272.201" width="31.8193" height="168.199" rx="15.9096" fill="#7DB5C4"/>
<rect x="543.517" y="272.201" width="31.8193" height="168.199" rx="15.9096" fill="#7DB5C4"/>
<rect x="608.481" y="218.274" width="31.8193" height="222.126" rx="15.9097" fill="#EECCA9"/>
<rect x="608.481" y="218.274" width="31.8193" height="222.126" rx="15.9097" fill="#FDD79F"/>
<rect x="608.481" y="376.202" width="31.8193" height="64.1982" rx="15.9097" fill="#7DB5C4"/>
<rect x="608.481" y="376.202" width="31.8193" height="64.1982" rx="15.9097" fill="#7DB5C4"/>
<rect x="283.66" y="468.647" width="178.983" height="12.8397" rx="6.41983" fill="#FDD79F"/>
<rect x="283.66" y="496.894" width="275.767" height="12.8397" rx="6.41983" fill="#FDD79F"/>
<rect x="238.583" y="627.859" width="521.04" height="314.571" rx="40" fill="#FFE2B7"/>
<path d="M499.949 686.283L371.15 759.044C367.57 761.067 369.005 766.527 373.118 766.527H689.399C693.083 766.527 694.808 761.97 692.049 759.531L649.942 722.298C643.168 716.309 633.689 714.443 625.151 717.42L587.988 730.377C578.678 733.622 568.33 731.094 561.567 723.92L530.436 690.9C522.546 682.531 509.963 680.625 499.949 686.283Z" fill="#FBC679"/>
<ellipse cx="595.886" cy="678.576" rx="17.8983" ry="17.3335" fill="#FBC679"/>
<rect x="307.524" y="799.91" width="178.983" height="12.8397" rx="6.41983" fill="#FDD79F"/>
<rect x="307.524" y="828.158" width="275.767" height="12.8397" rx="6.41983" fill="#FDD79F"/>
<rect x="307.524" y="856.405" width="253.228" height="12.8397" rx="6.41983" fill="#FDD79F"/>
<rect x="307.524" y="884.652" width="342.057" height="12.8397" rx="6.41983" fill="#FDD79F"/>
<rect x="816.632" y="627.859" width="254.554" height="118.125" rx="25" fill="#FFE2B7"/>
<ellipse cx="870.327" cy="683.711" rx="23.2015" ry="22.4694" fill="white"/>
<rect x="916.067" y="666.378" width="76.8966" height="12.8397" rx="6.41983" fill="#FDD79F"/>
<rect x="916.067" y="694.625" width="117.996" height="12.8397" rx="6.41983" fill="#FDD79F"/>
<rect x="1106.98" y="728.008" width="290.35" height="214.422" rx="40" fill="#FFE2B7"/>
<path fill-rule="evenodd" clip-rule="evenodd" d="M1225.84 845.232C1214.13 844.015 1200.87 850.54 1192.77 871.208C1188.38 882.416 1183.03 889.616 1176.84 893.375C1170.46 897.249 1163.82 897.096 1157.87 894.922C1152.06 892.798 1146.81 888.73 1142.58 884.489C1138.32 880.217 1134.84 875.526 1132.63 871.807C1131.48 869.864 1132.12 867.353 1134.06 866.198C1136 865.042 1138.51 865.681 1139.67 867.623C1141.55 870.787 1144.61 874.937 1148.37 878.707C1152.16 882.507 1156.43 885.68 1160.68 887.235C1164.8 888.741 1168.76 888.707 1172.59 886.38C1176.61 883.937 1181.08 878.616 1185.15 868.222C1194.24 845.011 1210.45 835.404 1226.69 837.091C1242.48 838.733 1256.87 850.993 1262.83 868.389C1265.59 876.444 1268.84 880.87 1271.96 883.097C1274.91 885.207 1278.17 885.658 1281.95 884.739C1285.87 883.784 1290.23 881.354 1294.8 877.786C1299.34 874.248 1303.86 869.773 1308.09 865.028C1321.15 850.37 1345.47 848.321 1358.31 864.513L1372.7 882.659C1374.1 884.43 1373.8 887.003 1372.03 888.408C1370.26 889.812 1367.69 889.515 1366.28 887.744L1351.9 869.598C1342.83 858.166 1324.57 858.83 1314.2 870.472C1309.77 875.438 1304.89 880.297 1299.84 884.24C1294.82 888.152 1289.39 891.349 1283.88 892.691C1278.22 894.069 1272.41 893.486 1267.2 889.755C1262.14 886.141 1258.13 879.919 1255.09 871.041C1250 856.173 1237.98 846.494 1225.84 845.232Z" fill="#FDD79F"/>
<path fill-rule="evenodd" clip-rule="evenodd" d="M1226.01 845.233C1214.36 844.007 1201.1 850.576 1193 871.494C1192.18 873.601 1189.81 874.648 1187.7 873.832C1185.6 873.016 1184.55 870.646 1185.37 868.538C1194.44 845.117 1210.62 835.385 1226.87 837.093C1242.67 838.755 1257.03 851.156 1262.97 868.703C1265.73 876.854 1268.99 881.334 1272.1 883.587C1275.04 885.714 1278.29 886.166 1282.04 885.242C1285.95 884.279 1290.3 881.826 1294.88 878.219C1299.41 874.644 1303.92 870.122 1308.14 865.326C1321.19 850.513 1345.51 848.438 1358.34 864.804L1372.71 883.14C1374.11 884.919 1373.79 887.491 1372.02 888.885C1370.24 890.28 1367.66 889.968 1366.27 888.189L1351.9 869.853C1342.85 858.307 1324.64 858.972 1314.29 870.735C1309.87 875.752 1304.99 880.661 1299.94 884.645C1294.93 888.598 1289.51 891.831 1284 893.189C1278.33 894.585 1272.52 893.992 1267.3 890.218C1262.26 886.567 1258.26 880.287 1255.22 871.328C1250.12 856.274 1238.11 846.505 1226.01 845.233Z" fill="#7DB5C4"/>
<rect x="1148.08" y="758.823" width="117.996" height="12.8397" rx="6.41983" fill="#FDD79F"/>
<rect x="1148.08" y="787.071" width="68.9417" height="12.8397" rx="6.41983" fill="#FDD79F"/>
<path d="M528.933 913.541C514.349 855.763 666.817 842.281 705.77 877.943C740.114 959.886 778.963 960.641 794.094 955.27C813.85 970.417 845.682 1010.81 869.774 1026.66C872.883 1028.7 874.967 1032.07 874.967 1035.79V1057.63C874.967 1064.63 878.625 1071.11 884.611 1074.74L885.86 1075.49C889.136 1077.48 891.792 1080.34 893.351 1083.84C906.795 1114 931.086 1187.94 917.393 1221.69L821.935 1215.91L782.161 1141.45L738.41 1268.56L417.566 1276.26C420.835 1265.18 400.244 1258.12 411.6 1221.69C418.663 1199.04 452.686 1152.53 465.295 1127.32C491.624 1074.68 526.282 1010.48 547.495 989.937C525.221 963.231 543.517 971.32 528.933 913.541Z" fill="#5C62A9"/>
<path d="M528.933 913.541C514.349 855.763 666.817 842.281 705.77 877.943C740.114 959.886 778.963 960.641 794.094 955.27C813.85 970.417 845.682 1010.81 869.774 1026.66C872.883 1028.7 874.967 1032.07 874.967 1035.79V1057.63C874.967 1064.63 878.625 1071.11 884.611 1074.74L885.86 1075.49C889.136 1077.48 891.792 1080.34 893.351 1083.84C906.795 1114 931.086 1187.94 917.393 1221.69L821.935 1215.91L782.161 1141.45L738.41 1268.56L417.566 1276.26C420.835 1265.18 400.244 1258.12 411.6 1221.69C418.663 1199.04 452.686 1152.53 465.295 1127.32C491.624 1074.68 526.282 1010.48 547.495 989.937C525.221 963.231 543.517 971.32 528.933 913.541Z" fill="url(#paint0_linear)"/>
<mask id="mask0" mask-type="alpha" maskUnits="userSpaceOnUse" x="416" y="850" width="513" height="428">
<path d="M523.63 892.356C509.046 834.577 666.817 842.281 705.77 877.943C740.114 959.886 778.962 960.641 794.094 955.27C813.805 970.383 845.537 1010.62 869.609 1026.55C872.8 1028.66 874.897 1032.17 874.786 1035.99L873.794 1070.24C873.691 1073.78 875.475 1077.12 878.482 1079L896.18 1090.09C918.719 1153 919.382 1177.4 928.662 1215.91L821.935 1215.91L782.161 1141.44L738.41 1268.56L416.24 1277.55C421.543 1259.57 432.415 1193.06 465.295 1127.32C491.624 1074.68 526.282 1010.48 547.494 989.937C525.221 963.231 538.214 950.134 523.63 892.356Z" fill="#FFBA55"/>
</mask>
<g mask="url(#mask0)">
<path d="M790.116 1109.35L779.51 1149.15L790.116 1190.24H924.685L919.382 1114.48H905.461C910.764 1169.05 861.709 1178.68 861.709 1178.68L841.493 1176.9C822.604 1175.24 806.169 1163.07 800.113 1145.1C795.998 1132.89 791.854 1119.26 790.116 1109.35Z" fill="#3A4187"/>
</g>
<path d="M805.363 1033.59C790.889 1012.79 782.824 974.316 768.903 963.616L800.722 946.924L833.867 974.53L840.496 1030.38C834.309 1029.31 813.715 1020.75 817.958 1038.73C823.261 1061.2 822.598 1054.78 817.958 1068.9C814.246 1080.2 814.201 1131.6 821.935 1156.21C812.655 1140.16 809.34 1113.2 809.34 1088.8C809.34 1062.97 825.913 1063.12 805.363 1033.59Z" fill="#3A4187"/>
<mask id="mask1" mask-type="alpha" maskUnits="userSpaceOnUse" x="408" y="858" width="511" height="411">
<path d="M530.259 914.183C515.675 856.405 666.817 842.281 705.77 877.943C740.114 959.886 778.963 969.629 794.094 964.258C815.306 980.521 860.118 1019.21 869.664 1043.86C879.21 1068.52 873.642 1083.24 869.664 1087.52C886.635 1119.36 909.438 1204.36 918.719 1242.88L843.148 1253.15L781.498 1142.09L738.41 1268.56L414.251 1262.14C393.039 1228.75 433.741 1190.49 466.621 1124.75C492.95 1072.11 523.63 1014.33 544.843 993.789C522.569 967.082 544.843 971.962 530.259 914.183Z" fill="#FFBA55"/>
</mask>
<g mask="url(#mask1)">
<path d="M568.707 923.171C535.827 910.845 547.273 888.076 550.809 874.38L515.675 847.417L493.137 900.059L536.225 1000.21C548.157 988.653 566.586 970.164 589.92 962.974C619.088 953.986 638.975 974.529 673.446 1006.63C701.022 1032.31 726.478 1030.17 735.758 1025.89C730.455 1027.17 687.366 1013.05 673.446 995.073C649.581 964.258 609.807 938.578 568.707 923.171Z" fill="#3A4187"/>
<path d="M572.685 1218.48C547.494 1251.87 453.805 1240.31 397.679 1232.61L373.814 1262.14L727.803 1281.4V1262.14C716.313 1256.57 706.326 1242.88 684.052 1232.61C667.193 1224.83 635.345 1144.23 618.175 1089.92C614.993 1079.85 602.151 1080.44 600.862 1090.92L600.827 1091.2C595.393 1135.36 587.594 1198.72 572.685 1218.48Z" fill="#3A4187"/>
<path d="M721.174 1133.74C701.022 1086.49 660.85 971.961 615.773 994.431C615.773 994.431 631.462 1100.79 666.817 1140.16L766.252 1218.48L784.813 1164.56C772.439 1170.55 741.327 1180.99 721.174 1133.74Z" fill="#3A4187"/>
</g>
<path d="M692.007 1246.73C646.399 1246.73 589.699 1094.07 578.651 1045.15C587.931 952.916 660.188 993.074 676.097 1054.78C699.962 1113.48 727.008 1171.35 739.736 1179.8C752.463 1188.26 882.259 1188 936.617 1191.52L890.877 1246.73H692.007Z" fill="#5B62A9"/>
<path d="M613.074 1196.22C612.21 1193.02 612.009 1189.41 611.133 1183.82L613.074 1196.22C614.983 1203.3 620.128 1208.42 642.952 1228.75C667.2 1250.36 718.523 1227.47 896.18 1240.31L885.574 1268.56H624.391L613.074 1196.22Z" fill="#3A4187"/>
<path d="M634.997 877.59C661.822 877.59 701.473 896.62 725.895 909.596C760.9 945.09 807.466 1005.77 713.684 964.554C596.457 913.031 540.971 877.59 634.997 877.59Z" fill="#141D78"/>
<mask id="mask2" mask-type="alpha" maskUnits="userSpaceOnUse" x="577" y="858" width="199" height="151">
<path d="M609.806 858.973C638.931 858.973 695.984 886.792 722.5 901.344C760.506 941.146 820.038 1047.99 722.5 993.789C678.749 969.478 507.719 858.973 609.806 858.973Z" fill="#E0450F"/>
</mask>
<g mask="url(#mask2)">
<path d="M718.522 934.727C697.309 959.122 615.552 911.187 575.336 889.788L682.726 984.801C708.358 968.538 735.602 915.084 718.522 934.727Z" fill="black"/>
</g>
<path d="M730.455 1167.12C733.107 1145.51 739.47 1093.42 743.713 1057.99C747.022 1030.35 724.004 1002.11 705.928 986.085C738.93 1013.07 768.002 1001.16 778.77 989.611C780.173 987.917 779.789 988.416 780.173 988.011C779.741 988.537 779.273 989.071 778.77 989.611C775.863 993.125 770.934 1000.11 766.915 1009.2C762.067 1020.15 771.224 1077.73 774.828 1098.93C775.708 1104.11 775.554 1109.39 774.286 1114.49C770.375 1130.24 761.392 1166.09 756.308 1183.82C749.458 1182.75 745.967 1181.12 741.724 1180.61C737.482 1180.09 732.444 1171.4 730.455 1167.12Z" fill="white"/>
<path d="M730.455 1167.12C733.107 1145.51 739.47 1093.42 743.713 1057.99C747.022 1030.35 724.004 1002.11 705.928 986.085C738.93 1013.07 768.002 1001.16 778.77 989.611C780.173 987.917 779.789 988.416 780.173 988.011C779.741 988.537 779.273 989.071 778.77 989.611C775.863 993.125 770.934 1000.11 766.915 1009.2C762.067 1020.15 771.224 1077.73 774.828 1098.93C775.708 1104.11 775.554 1109.39 774.286 1114.49C770.375 1130.24 761.392 1166.09 756.308 1183.82C749.458 1182.75 745.967 1181.12 741.724 1180.61C737.482 1180.09 732.444 1171.4 730.455 1167.12Z" fill="url(#paint1_linear)"/>
<path d="M706.591 1243.52H685.378L678.086 1261.5H699.962L706.591 1243.52Z" fill="white"/>
<path d="M706.591 1243.52H685.378L678.086 1261.5H699.962L706.591 1243.52Z" fill="url(#paint2_linear)"/>
<path d="M693.995 975.814L726.692 918.521L803.589 951.904L785.69 980.793C752.811 1025.48 712.557 994.431 693.995 975.814Z" fill="#FFC2A0"/>
<mask id="mask3" mask-type="alpha" maskUnits="userSpaceOnUse" x="689" y="918" width="116" height="88">
<path d="M689.043 981.026L727.066 918.302L804.445 951.927L786.434 981.026C753.348 1026.03 707.721 999.779 689.043 981.026Z" fill="#FFA188"/>
</mask>
<g mask="url(#mask3)">
<path d="M765.464 972.123C740.635 969.719 720.978 937.724 714.254 922.028L788.225 940.563C790.984 952.085 790.294 974.528 765.464 972.123Z" fill="#F29386"/>
</g>
<path d="M675.762 895.096C661.032 866.461 690.234 854.537 709.489 874.678C674.76 673.117 812.511 728.132 827.951 765.109C880.942 892.018 876.166 916.108 822.766 948.436C773.006 978.559 735.446 944.768 720.595 920.951C711.788 924.264 690.492 923.73 675.762 895.096Z" fill="#FFC2A0"/>
<mask id="mask4" mask-type="alpha" maskUnits="userSpaceOnUse" x="671" y="732" width="192" height="224">
<path d="M675.762 895.096C661.032 866.461 690.234 854.537 709.489 874.678C674.76 673.116 814.109 734.004 829.427 771.029C848.965 818.254 890.992 906.375 832.532 941.766C782.773 971.889 735.446 944.767 720.595 920.951C711.788 924.264 690.492 923.73 675.762 895.096Z" fill="#CCCCCC"/>
</mask>
<g mask="url(#mask4)">
<path d="M742.296 787.435C717.451 801.265 709.229 850.86 708.224 873.929L694.308 841.471L715.522 760.49L797.803 734.148C811.975 743.991 839.249 766.142 834.978 775.996C829.639 788.313 773.353 770.148 742.296 787.435Z" fill="#F29386"/>
<ellipse rx="18.4884" ry="10.3145" transform="matrix(0.938596 -0.345018 0.364907 0.931044 848.922 850.187)" fill="#F67E6D"/>
<ellipse rx="18.4884" ry="10.3145" transform="matrix(0.938596 -0.345018 0.364907 0.931044 755.61 882.45)" fill="#F67E6D"/>
</g>
<path d="M717.86 935.368C702.097 937.593 680.444 927.541 657.281 885.842C628.326 833.718 612.793 812.843 640.844 769.542C667.472 728.438 674.308 687.294 694.717 682.234C702.581 680.284 707.5 683.312 709.515 688.13C723.319 659.464 791.903 627.3 811.572 686.444C837.429 670.79 863.746 704.716 867.226 713.319C874.292 730.79 870.146 746.507 850.061 762.784C845.292 766.648 839.327 768.914 833.138 769.628C766.556 777.311 753.584 752.987 738.641 768.45C701.613 806.765 705.129 842.491 709.981 876.651C701.033 870.459 686.247 859.261 675.198 871.21C669.366 877.516 671.038 895.684 694.806 916.121C697.734 918.639 709.577 925.198 720.595 920.951C726.662 929.139 717.86 935.368 717.86 935.368Z" fill="#5E1212"/>
<mask id="mask5" mask-type="alpha" maskUnits="userSpaceOnUse" x="626" y="653" width="245" height="283">
<path d="M717.86 935.369C702.097 937.593 680.444 927.541 657.281 885.842C628.326 833.718 612.793 812.843 640.844 769.542C667.472 728.438 674.308 687.294 694.717 682.234C702.581 680.284 707.5 683.312 709.515 688.13C723.319 659.464 791.903 627.3 811.572 686.444C837.429 670.79 863.746 704.716 867.226 713.319C874.292 730.79 870.146 746.507 850.061 762.784C845.292 766.649 839.327 768.914 833.138 769.628C766.556 777.312 753.583 752.988 738.641 768.45C701.613 806.765 705.129 842.491 709.981 876.651C701.033 870.46 686.247 859.261 675.198 871.21C669.366 877.516 671.038 895.684 694.806 916.122C697.734 918.639 709.577 925.198 720.595 920.951C726.662 929.139 717.86 935.369 717.86 935.369Z" fill="#5E1212"/>
</mask>
<g mask="url(#mask5)">
<path d="M660.188 859.615C671.855 898.647 707.475 919.533 723.826 925.097V943.714H702.613C671.899 921.673 609.94 877.077 607.818 875.022C605.167 872.454 570.696 777.441 570.696 768.453C570.696 761.263 612.68 693.127 633.672 659.958L818.621 641.341C820.389 650.542 815.704 667.148 782.824 659.958C741.724 650.97 723.826 734.428 702.613 709.391C695.127 700.554 674.108 728.008 664.828 751.762C648.091 794.599 645.604 810.824 660.188 859.615Z" fill="#7E1B1B"/>
</g>
<ellipse rx="5.9481" ry="9.66058" transform="matrix(0.953194 -0.302358 0.320382 0.947288 772.184 847.868)" fill="black"/>
<path d="M742.762 834.003C738.443 814.244 756.774 800.082 774.819 814.597" stroke="black" stroke-width="3" stroke-linecap="round"/>
<path d="M800.794 823.28C807.636 818.378 823.624 810.373 832.847 817.574" stroke="black" stroke-width="3" stroke-linecap="round"/>
<ellipse rx="5.95192" ry="9.65421" transform="matrix(0.963183 -0.268846 0.285246 0.958454 817.717 838.473)" fill="black"/>
<path d="M802.661 847.042C807.65 852.35 818.838 864.353 823.673 869.906C828.507 875.458 819.879 885.83 814.961 890.321" stroke="#E17C6E" stroke-width="2" stroke-linecap="round"/>
<path d="M739.736 1179.96C733.107 1183.39 719.053 1193.83 715.871 1208.21" stroke="#212973" stroke-width="3"/>
<path d="M478.553 1195.37C497.998 1201.36 542.987 1197.94 567.381 1136.31" stroke="#212973" stroke-width="3"/>
<path d="M547.494 989.811C562.37 968.706 603.697 945.101 639.398 973.466C684.024 1008.92 686.437 1031.72 723.826 1027.92" stroke="#212973" stroke-width="3" stroke-linecap="round"/>
<path d="M702.814 882.504C697.567 877.605 686.848 870.365 685.95 880.6C685.305 887.939 688.962 897.159 694.957 903.16M694.957 903.16C699.412 907.62 705.158 910.301 711.389 909.111C716.634 908.109 715.688 905.705 713.05 903.359C708.095 898.953 700.587 899.752 694.957 903.16V903.16Z" stroke="#E17C6E" stroke-width="2" stroke-linecap="round"/>
<path d="M818.621 1054.78C819.284 1060.56 823.394 1072.5 834.53 1074.04M859.058 1074.04C861.709 1074.04 868.869 1072.62 876.293 1066.97" stroke="#212973" stroke-width="2"/>
<path d="M766.252 1021.39C779.51 1019.25 803.772 1008.55 815.969 982.875" stroke="#212973" stroke-width="2" stroke-linecap="round"/>
<path d="M851.804 892.685C842.143 891.861 840.62 947.854 840.685 949.136L859.721 961.69C858.802 955.092 856.669 929.861 857.439 917.484C858.4 902.012 861.466 893.509 851.804 892.685Z" fill="#FFC2A0" stroke="#E17C6E" stroke-width="2"/>
<path d="M852.109 940.927C860.922 943.939 865.717 983.6 867.013 1003.05V1028.78C859.021 1029.83 846.56 1037.39 835.37 1028.78C825.304 1021.04 827.289 1016.42 827.289 1010.77C827.289 1010.77 817.342 1018.13 812.327 1010.77C808.278 1004.84 805.454 998.223 811.031 995.713C802.218 995.211 803.255 984.418 807.143 981.907C797.423 979.397 802.646 969.376 805.454 966.656C799.622 966.656 796.382 957.871 798.974 950.968C801.566 944.065 841.093 937.162 852.109 940.927Z" fill="#FFC2A0"/>
<mask id="mask6" mask-type="alpha" maskUnits="userSpaceOnUse" x="798" y="939" width="70" height="98">
<path d="M852.109 940.927C860.922 943.939 865.717 983.6 867.013 1003.05V1028.78C859.021 1029.83 841.412 1043.21 832.262 1032.58C826.045 1025.35 827.289 1016.42 827.289 1010.77C827.289 1010.77 817.342 1018.13 812.327 1010.77C808.278 1004.84 805.454 998.223 811.031 995.713C802.218 995.211 803.255 984.418 807.143 981.907C797.423 979.397 802.646 969.376 805.454 966.656C799.622 966.656 796.382 957.871 798.974 950.968C801.566 944.065 841.093 937.162 852.109 940.927Z" fill="#FFA188"/>
</mask>
<g mask="url(#mask6)">
<path d="M840.965 1007.29C837.484 1006.81 829.983 1009.9 826.667 1011.51C823.973 1014.92 818.461 1021.98 817.964 1022.94C817.467 1023.91 826.046 1032.98 830.397 1037.39C840.758 1037.99 861.977 1039.08 863.967 1038.6C865.956 1038.12 869.354 1030.37 870.805 1026.56C866.868 1026.36 860.361 1026.07 850.912 1026.56C841.463 1027.04 839.1 1013.91 840.965 1007.29Z" fill="#E17C6E"/>
</g>
<path d="M805.847 966.219C812.975 963.709 829.045 958.94 836.302 959.944M807.791 981.28C815.351 978.351 832.025 972.871 838.246 974.377M811.031 996.341C817.295 992.785 831.766 986.426 839.542 989.438M820.102 1012.66C826.15 1009.94 839.801 1005.13 846.022 1007.64" stroke="#E17C6E" stroke-width="2"/>
<path d="M808.017 965.75C805.531 966.553 800.185 966.111 798.693 957.924C797.201 949.736 803.044 946.886 806.152 946.485C819.829 943.274 848.301 937.815 852.777 941.668" stroke="#E17C6E" stroke-width="2"/>
<rect x="713.22" y="1246.73" width="293.002" height="14.1236" fill="#357290"/>
<path d="M963.133 1091.37H1196.47L1106.98 1260.85H884.248L963.133 1091.37Z" fill="#7DB5C4"/>
<mask id="mask7" mask-type="alpha" maskUnits="userSpaceOnUse" x="884" y="1090" width="313" height="170">
<path d="M963.133 1090.09H1196.47L1106.98 1259.57H884.248L963.133 1090.09Z" fill="#7DB5C4"/>
</mask>
<g mask="url(#mask7)">
<path d="M1191.83 1204.36C1047.59 1229.01 977.054 1124.75 959.819 1069.54L1275.36 1018.18C1307.62 1069.97 1336.08 1179.71 1191.83 1204.36Z" fill="#64A6C0"/>
</g>
<mask id="mask8" mask-type="alpha" maskUnits="userSpaceOnUse" x="876" y="1088" width="322" height="181">
<path d="M957.356 1088.8H1197.14L1105.18 1268.56H876.293L957.356 1088.8Z" fill="#7DB5C4"/>
</mask>
<g mask="url(#mask8)">
<path d="M973.077 1093.57L889.551 1272.41H860.384L933.303 1069.54H1174.6L1201.11 1093.57H973.077Z" fill="#163D56"/>
</g>
<ellipse cx="1051.96" cy="1183.82" rx="17.8983" ry="12.8396" fill="#466B7C"/>
<mask id="mask9" mask-type="alpha" maskUnits="userSpaceOnUse" x="1034" y="1170" width="36" height="27">
<path d="M1069.86 1183.82C1069.86 1190.91 1061.85 1196.66 1051.96 1196.66C1042.08 1196.66 1034.06 1190.91 1034.06 1183.82C1034.06 1176.72 1042.08 1170.98 1051.96 1170.98C1061.85 1170.98 1069.86 1176.72 1069.86 1183.82Z" fill="#466B7C"/>
</mask>
<g mask="url(#mask9)">
<path d="M1103.01 1202.43C1066.41 1197.81 1028.54 1169.26 1014.18 1155.57C1038.04 1151.07 1086.3 1141.96 1088.42 1141.44C1091.07 1140.8 1148.75 1208.21 1103.01 1202.43Z" fill="#133B54"/>
</g>
<ellipse rx="5.73426" ry="9.69335" transform="matrix(0.919186 -0.393824 0.415518 0.909585 1059.45 1160.08)" fill="#133B54"/>
<ellipse rx="5.18155" ry="8.54513" transform="matrix(0.531717 0.846922 -0.86171 0.507402 1068.39 1163.9)" fill="#133B54"/>
<rect x="218.434" y="1261.23" width="893.748" height="25.372" fill="#FF546C"/>
<mask id="mask10" mask-type="alpha" maskUnits="userSpaceOnUse" x="218" y="1260" width="1147" height="27">
<rect x="218.695" y="1260.85" width="1145.49" height="25.6794" fill="#FF546C"/>
</mask>
<g mask="url(#mask10)">
<rect x="603.178" y="1237.74" width="761.01" height="188.743" fill="#B82D40"/>
</g>
<path d="M1279.34 97.5466C1279.34 77.0015 1296.5 60.3464 1317.68 60.3464H1524.72C1545.89 60.3464 1563.06 77.0015 1563.06 97.5466V155.579C1563.06 176.124 1545.89 192.779 1524.72 192.779H1359.78C1350.9 192.779 1342.3 195.767 1335.44 201.234L1303.11 227.003C1294.46 235.667 1279.34 229.725 1279.34 217.664V97.5466Z" fill="#7DB5C4"/>
<rect x="1324.41" y="91.1615" width="125.632" height="12.8397" rx="6.41983" fill="white"/>
<rect x="1324.41" y="119.409" width="193.567" height="12.8397" rx="6.41983" fill="white"/>
<rect x="1324.41" y="147.656" width="177.747" height="12.8396" rx="6.4198" fill="white"/>
<path d="M299.57 620.122C299.57 604.54 286.495 591.908 270.366 591.908H112.667C96.5388 591.908 83.4639 604.54 83.4639 620.122V664.136C83.4639 679.719 96.5388 692.351 112.667 692.351H238.299C245.06 692.351 251.611 694.617 256.836 698.763L281.463 718.308C288.052 724.878 299.57 720.372 299.57 711.224V620.122Z" fill="#EE6754"/>
<rect x="114.463" y="615.924" width="31.8845" height="8.57727" rx="4.28863" fill="white"/>
<rect x="114.463" y="634.794" width="59.3405" height="8.57727" rx="4.28863" fill="white"/>
<rect x="114.463" y="653.665" width="124.881" height="8.57714" rx="4.28857" fill="white"/>
<rect x="1321.76" y="516.154" width="310.238" height="300.448" rx="30" fill="#386D95"/>
<path fill-rule="evenodd" clip-rule="evenodd" d="M1450.37 705.46C1488.62 705.46 1518.96 675.522 1518.96 639.415C1518.96 603.307 1488.62 573.37 1450.37 573.37C1412.11 573.37 1381.77 603.307 1381.77 639.415C1381.77 675.522 1412.11 705.46 1450.37 705.46ZM1450.37 717.737C1495.03 717.737 1531.24 682.671 1531.24 639.415C1531.24 596.159 1495.03 561.093 1450.37 561.093C1405.7 561.093 1369.49 596.159 1369.49 639.415C1369.49 682.671 1405.7 717.737 1450.37 717.737Z" fill="white"/>
<path fill-rule="evenodd" clip-rule="evenodd" d="M1498.41 691.521C1500.78 689.098 1504.73 688.991 1507.22 691.283L1573.75 752.317C1576.25 754.609 1576.35 758.432 1573.98 760.855C1571.61 763.279 1567.66 763.385 1565.16 761.093L1498.64 700.059C1496.14 697.767 1496.04 693.944 1498.41 691.521Z" fill="white"/>
<defs>
<linearGradient id="paint0_linear" x1="574.01" y1="1049" x2="319.257" y2="940.524" gradientUnits="userSpaceOnUse">
<stop stop-color="#5B62A9"/>
<stop offset="1" stop-color="#060A2B" stop-opacity="0"/>
</linearGradient>
<linearGradient id="paint1_linear" x1="689.355" y1="1262.14" x2="775.706" y2="999.167" gradientUnits="userSpaceOnUse">
<stop offset="0.362526" stop-color="#B1B6E9"/>
<stop offset="1" stop-color="white" stop-opacity="0"/>
</linearGradient>
<linearGradient id="paint2_linear" x1="689.355" y1="1262.14" x2="775.706" y2="999.167" gradientUnits="userSpaceOnUse">
<stop offset="0.362526" stop-color="#B1B6E9"/>
<stop offset="1" stop-color="white" stop-opacity="0"/>
</linearGradient>
</defs>
</svg>
